# xmcd
#
# Track frame offsets:
# 150
# 17040
# 36090
# 56190
# 81841
# 106966
# 129092
# 156992
# 177918
# 209344
# 235220
# 260346
# 289522
# 314647
#
# Disc length: 4349 seconds
#
#
# Revision: 0
# Processed by: cddbd v1.5.1PL0 Copyright (c) Steve Scherf et al.
# Submitted via: CDLP Version 5
#
DISCID=c010fb0e
DTITLE=金森幸介 - 金森幸介
DYEAR=1900
DGENRE=Misc
TTITLE0=Ｓｏｕｌ　Ｍａｔｅ
TTITLE1=せつない恋は
TTITLE2=Ｈｅｌｐ　Ｍｅ
TTITLE3=大阪も雨に沈んでいるかい（ボーナス・トラック）
TTITLE4=静かな音楽になった
TTITLE5=ちがう言葉
TTITLE6=ふたりは（ボーナス・トラック）
TTITLE7=さくら
TTITLE8=悲しい日々
TTITLE9=君の心の草原を渡る緑の風のように
TTITLE10=もう引き返せない
TTITLE11=美しい絵を描く人達がいる
TTITLE12=悲しみの季節
TTITLE13=ふたりは
EXTD=
EXTT0=
EXTT1=
EXTT2=
EXTT3=
EXTT4=
EXTT5=
EXTT6=
EXTT7=
EXTT8=
EXTT9=
EXTT10=
EXTT11=
EXTT12=
EXTT13=
PLAYORDER=
